inDegrees=yes
name=ik_lifting_orientations
DataType=double
version=3
OpenSimVersion=4.5-2024-01-10-34fd6af
endheader
time	pelvis_tilt	pelvis_list	pelvis_rotation	pelvis_tx	pelvis_ty	pelvis_tz	hip_flexion_r	hip_adduction_r	hip_rotation_r	knee_angle_r	knee_angle_r_beta	ankle_angle_r	subtalar_angle_r	mtp_angle_r	hip_flexion_l	hip_adduction_l	hip_rotation_l	knee_angle_l	knee_angle_l_beta	ankle_angle_l	subtalar_angle_l	mtp_angle_l	lumbar_extension	lumbar_bending	lumbar_rotation	arm_flex_r	arm_add_r	arm_rot_r	elbow_flex_r	pro_sup_r	wrist_flex_r	wrist_dev_r	arm_flex_l	arm_add_l	arm_rot_l	elbow_flex_l	pro_sup_l	wrist_flex_l	wrist_dev_l
2.18	-1.161428617551939	-1.245070302430873	-91.04860181310723	0	0.9399999998679526	0	45.03099416824346	-10.50746849956634	0	59.90329384247763	1.04550971034088	-5.175395761522191	0	0	45.03099416824346	-10.50746849956634	0	59.90329384247763	1.04550971034088	-5.175395761522191	0	0	-2.178913011630884	1.978066128574869	2.866888021853097	117.2652839393484	56.57147236309937	28.74748110254206	9.718321342643558	2.237315967517441	0	0	0	-10.81347252014372	0	87.79349857907795	2.237315967517441	0	0
2.19	-1.195314912778503	-1.274772934630983	-91.41957166075926	0	0.9399999998679526	0	45.03096427806193	-10.50575480005891	0	59.90336697590971	1.045510986760063	-5.174623123522552	0	0	45.03096427806193	-10.50575480005891	0	59.90336697590971	1.045510986760063	-5.174623123522552	0	0	-2.393240962959028	2.159283656773137	3.147095037547358	116.0420326862622	56.33271706145658	29.94032324480086	10.5662319227652	2.235815114194811	0	0	0	-10.81553944765847	0	87.79497862191967	2.235815114194811	0	0
2.2	-1.195938062830421	-1.311416382446521	-91.80145562319316	0	0.9399999998679526	0	45.03091004372099	-10.50266759627802	0	59.90349989804064	1.045513306688897	-5.173234922855465	0	0	45.03091004372099	-10.50266759627802	0	59.90349989804064	1.045513306688897	-5.173234922855465	0	0	-2.523359301276782	2.225365225400832	3.394674500912453	114.9784711702601	56.22035766723671	30.97204095821059	11.55191986307118	2.233088997037831	0	0	0	-10.81929633899895	0	87.79766693961942	2.233088997037831	0	0
2.21	-1.237549157647798	-1.32747546933688	-92.11285218991334	0	0.9399999998679526	0	45.03086347953744	-10.50002428137373	0	59.90361398470897	1.045515297876892	-5.172047933874437	0	0	45.03086347953744	-10.50002428137373	0	59.90361398470897	1.045515297876892	-5.172047933874437	0	0	-2.596238694099322	2.28006620662959	3.412081041616388	112.8016957692623	55.38640363481906	32.51919421992322	13.68297941095399	2.230747954080635	0	0	0	-10.8225227854199	0	87.79997552249999	2.230747954080635	0	0
2.22	-1.246478254047511	-1.309161516934624	-92.24016507758232	0	0.9399999998679526	0	45.03051701227225	-10.48646271465499	0	59.90468598957182	1.045534007891346	-5.166454799628641	0	0	45.03051701227225	-10.48646271465499	0	59.90468598957182	1.045534007891346	-5.166454799628641	0	0	-2.71456118763707	2.404229127809102	3.61820485797292	109.8540111702711	53.75594991920847	34.81038074094861	15.67329646410634	2.211586396261783	0	0	0	-10.85099774903784	0	87.81887153615753	2.211586396261783	0	0
2.23	-1.255088294875475	-1.320574464503278	-92.34701341037909	0	0.9399999998679526	0	45.03049263020691	-10.48510143079871	0	59.90474570963729	1.045535050203118	-5.165847111665339	0	0	45.03049263020691	-10.48510143079871	0	59.90474570963729	1.045535050203118	-5.165847111665339	0	0	-2.864993200743809	2.527164985502337	3.806006360581811	108.3471625460309	52.94120108419673	36.13194484309544	16.78852414889304	2.210357310407392	0	0	0	-10.8526947185269	0	87.82008358036236	2.210357310407392	0	0
2.24	-1.243971671703342	-1.307896496976427	-92.29629484512974	0	0.9399999998679526	0	45.03046630409212	-10.48363474372992	0	59.90481020066854	1.045536175783951	-5.165192975232415	0	0	45.03046630409212	-10.48363474372992	0	59.90481020066854	1.045536175783951	-5.165192975232415	0	0	-2.980937931606986	2.634394628138616	3.889383532464387	107.630110470954	52.69517690374097	37.05231568686034	17.75874565128149	2.20902989785455	0	0	0	-10.8545277093018	0	87.82139258797034	2.20902989785455	0	0
2.25	-1.241650688122055	-1.309304160067024	-92.23737412801029	0	0.9399999998679526	0	45.03043816903805	-10.48207155029568	0	59.90487916211151	1.045537379388188	-5.164496531790399	0	0	45.03043816903805	-10.48207155029568	0	59.90487916211151	1.045537379388188	-5.164496531790399	0	0	-3.012894763245589	2.674773803228044	3.864682044067214	106.5519657685377	52.1954082787359	38.02101208518537	18.66224791538446	2.207610689770409	0	0	0	-10.85648800733516	0	87.82279211839372	2.207610689770409	0	0
2.26	-1.235941626631647	-1.312830422999316	-92.31666287996943	0	0.9399999998679526	0	45.03041146180832	-10.48059090797197	0	59.90494463469559	1.04553852210035	-5.16383748412321	0	0	45.03041146180832	-10.48059090797197	0	59.90494463469559	1.04553852210035	-5.16383748412321	0	0	-3.048459510925489	2.684111916616086	3.977452343676985	105.2758581229073	51.39862507066913	38.97993071793622	19.90217787682769	2.206263152169951	0	0	0	-10.85834960501907	0	87.82412097209907	2.206263152169951	0	0
2.27	-1.253039791108189	-1.331759000320007	-92.21050559337834	0	0.9399999998679526	0	45.03038087823566	-10.47889813267613	0	59.90501957904872	1.045539830126068	-5.16308467637796	0	0	45.03038087823566	-10.47889813267613	0	59.90501957904872	1.045539830126068	-5.16308467637796	0	0	-3.069748727199761	2.709158671249852	3.872548702679043	104.6639273454228	51.17234617957642	39.60991164027108	20.74155039064174	2.204719945680405	0	0	0	-10.86048146253525	0	87.82564278172042	2.204719945680405	0	0
2.28	-1.302868520192987	-1.360298555415934	-92.23314293424566	0	0.9399999998679526	0	45.03035811312059	-10.4776397694019	0	59.90507534218757	1.045540803376442	-5.162525469062941	0	0	45.03035811312059	-10.4776397694019	0	59.90507534218757	1.045540803376442	-5.162525469062941	0	0	-3.100554336850636	2.748066812066654	3.986015851134034	104.2623574798289	51.00148182216441	40.09219237120353	21.75697227896922	2.2035712179627	0	0	0	-10.86206830710766	0	87.82677558210644	2.2035712179627	0	0
2.29	-1.309455429427015	-1.383887113893213	-92.15978679185447	0	0.9399999998679526	0	45.03033273945615	-10.47624605959815	0	59.90513771013578	1.045541891902486	-5.161907193395514	0	0	45.03033273945615	-10.47624605959815	0	59.90513771013578	1.045541891902486	-5.161907193395514	0	0	-3.140531578899902	2.781511350693854	3.88482327472637	103.6846704172105	50.73477169577521	40.62234867273224	22.44695522011815	2.202288920813746	0	0	0	-10.86384181582222	0	87.82804010011741	2.202288920813746	0	0
